<svg width="1440" height="1024" viewBox="0 0 1440 1024" fill="none" xmlns="http://www.w3.org/2000/svg">
<rect width="1440" height="1024" fill="white"/>
<rect width="1440" height="1024" fill="#5474E4"/>
<mask id="path-2-outside-1" maskUnits="userSpaceOnUse" x="315.037" y="287.68" width="723" height="463" fill="black">
<rect fill="white" x="315.037" y="287.68" width="723" height="463"/>
<path d="M404.877 300.96V384H393.957V322.08L366.357 384H358.677L330.957 321.96V384H320.037V300.96H331.797L362.517 369.6L393.237 300.96H404.877Z"/>
<path d="M481.716 318.24V384H470.796V374.28C468.716 377.64 465.796 380.28 462.036 382.2C458.356 384.04 454.276 384.96 449.796 384.96C444.676 384.96 440.076 383.92 435.996 381.84C431.916 379.68 428.676 376.48 426.276 372.24C423.956 368 422.796 362.84 422.796 356.76V318.24H433.596V355.32C433.596 361.8 435.236 366.8 438.516 370.32C441.796 373.76 446.276 375.48 451.956 375.48C457.796 375.48 462.396 373.68 465.756 370.08C469.116 366.48 470.796 361.24 470.796 354.36V318.24H481.716Z"/>
<path d="M532.194 317.04C540.194 317.04 546.674 319.48 551.634 324.36C556.594 329.16 559.074 336.12 559.074 345.24V384H548.274V346.8C548.274 340.24 546.634 335.24 543.354 331.8C540.074 328.28 535.594 326.52 529.914 326.52C524.154 326.52 519.554 328.32 516.114 331.92C512.754 335.52 511.074 340.76 511.074 347.64V384H500.154V318.24H511.074V327.6C513.234 324.24 516.154 321.64 519.834 319.8C523.594 317.96 527.714 317.04 532.194 317.04Z"/>
<path d="M582.552 307.56C580.472 307.56 578.712 306.84 577.272 305.4C575.832 303.96 575.112 302.2 575.112 300.12C575.112 298.04 575.832 296.28 577.272 294.84C578.712 293.4 580.472 292.68 582.552 292.68C584.552 292.68 586.232 293.4 587.592 294.84C589.032 296.28 589.752 298.04 589.752 300.12C589.752 302.2 589.032 303.96 587.592 305.4C586.232 306.84 584.552 307.56 582.552 307.56ZM587.832 318.24V384H576.912V318.24H587.832Z"/>
<path d="M602.363 351C602.363 344.2 603.723 338.28 606.443 333.24C609.163 328.12 612.923 324.16 617.723 321.36C622.603 318.56 628.163 317.16 634.403 317.16C642.483 317.16 649.123 319.12 654.323 323.04C659.603 326.96 663.083 332.4 664.763 339.36H653.003C651.883 335.36 649.683 332.2 646.403 329.88C643.203 327.56 639.203 326.4 634.403 326.4C628.163 326.4 623.123 328.56 619.283 332.88C615.443 337.12 613.523 343.16 613.523 351C613.523 358.92 615.443 365.04 619.283 369.36C623.123 373.68 628.163 375.84 634.403 375.84C639.203 375.84 643.203 374.72 646.403 372.48C649.603 370.24 651.803 367.04 653.003 362.88H664.763C663.003 369.6 659.483 375 654.203 379.08C648.923 383.08 642.323 385.08 634.403 385.08C628.163 385.08 622.603 383.68 617.723 380.88C612.923 378.08 609.163 374.12 606.443 369C603.723 363.88 602.363 357.88 602.363 351Z"/>
<path d="M684.974 307.56C682.894 307.56 681.134 306.84 679.694 305.4C678.254 303.96 677.534 302.2 677.534 300.12C677.534 298.04 678.254 296.28 679.694 294.84C681.134 293.4 682.894 292.68 684.974 292.68C686.974 292.68 688.654 293.4 690.014 294.84C691.454 296.28 692.174 298.04 692.174 300.12C692.174 302.2 691.454 303.96 690.014 305.4C688.654 306.84 686.974 307.56 684.974 307.56ZM690.254 318.24V384H679.334V318.24H690.254Z"/>
<path d="M719.785 330.36C721.945 326.6 725.145 323.48 729.385 321C733.705 318.44 738.705 317.16 744.385 317.16C750.225 317.16 755.505 318.56 760.225 321.36C765.025 324.16 768.785 328.12 771.505 333.24C774.225 338.28 775.585 344.16 775.585 350.88C775.585 357.52 774.225 363.44 771.505 368.64C768.785 373.84 765.025 377.88 760.225 380.76C755.505 383.64 750.225 385.08 744.385 385.08C738.785 385.08 733.825 383.84 729.505 381.36C725.265 378.8 722.025 375.64 719.785 371.88V415.2H708.865V318.24H719.785V330.36ZM764.425 350.88C764.425 345.92 763.425 341.6 761.425 337.92C759.425 334.24 756.705 331.44 753.265 329.52C749.905 327.6 746.185 326.64 742.105 326.64C738.105 326.64 734.385 327.64 730.945 329.64C727.585 331.56 724.865 334.4 722.785 338.16C720.785 341.84 719.785 346.12 719.785 351C719.785 355.96 720.785 360.32 722.785 364.08C724.865 367.76 727.585 370.6 730.945 372.6C734.385 374.52 738.105 375.48 742.105 375.48C746.185 375.48 749.905 374.52 753.265 372.6C756.705 370.6 759.425 367.76 761.425 364.08C763.425 360.32 764.425 355.92 764.425 350.88Z"/>
<path d="M785.879 350.88C785.879 344.16 787.239 338.28 789.959 333.24C792.679 328.12 796.399 324.16 801.119 321.36C805.919 318.56 811.239 317.16 817.079 317.16C822.839 317.16 827.839 318.4 832.079 320.88C836.319 323.36 839.479 326.48 841.559 330.24V318.24H852.599V384H841.559V371.76C839.399 375.6 836.159 378.8 831.839 381.36C827.599 383.84 822.639 385.08 816.959 385.08C811.119 385.08 805.839 383.64 801.119 380.76C796.399 377.88 792.679 373.84 789.959 368.64C787.239 363.44 785.879 357.52 785.879 350.88ZM841.559 351C841.559 346.04 840.559 341.72 838.559 338.04C836.559 334.36 833.839 331.56 830.399 329.64C827.039 327.64 823.319 326.64 819.239 326.64C815.159 326.64 811.439 327.6 808.079 329.52C804.719 331.44 802.039 334.24 800.039 337.92C798.039 341.6 797.039 345.92 797.039 350.88C797.039 355.92 798.039 360.32 800.039 364.08C802.039 367.76 804.719 370.6 808.079 372.6C811.439 374.52 815.159 375.48 819.239 375.48C823.319 375.48 827.039 374.52 830.399 372.6C833.839 370.6 836.559 367.76 838.559 364.08C840.559 360.32 841.559 355.96 841.559 351Z"/>
<path d="M881.972 295.2V384H871.052V295.2H881.972Z"/>
<path d="M906.224 307.56C904.144 307.56 902.384 306.84 900.944 305.4C899.504 303.96 898.784 302.2 898.784 300.12C898.784 298.04 899.504 296.28 900.944 294.84C902.384 293.4 904.144 292.68 906.224 292.68C908.224 292.68 909.904 293.4 911.264 294.84C912.704 296.28 913.424 298.04 913.424 300.12C913.424 302.2 912.704 303.96 911.264 305.4C909.904 306.84 908.224 307.56 906.224 307.56ZM911.504 318.24V384H900.584V318.24H911.504Z"/>
<path d="M943.435 327.24V366C943.435 369.2 944.115 371.48 945.475 372.84C946.835 374.12 949.195 374.76 952.555 374.76H960.595V384H950.755C944.675 384 940.115 382.6 937.075 379.8C934.035 377 932.515 372.4 932.515 366V327.24H923.995V318.24H932.515V301.68H943.435V318.24H960.595V327.24H943.435Z"/>
<path d="M1030.47 318.24L990.866 414.96H979.586L992.546 383.28L966.026 318.24H978.146L998.786 371.52L1019.19 318.24H1030.47Z"/>
<path d="M651.295 565.08C645.135 565.08 639.535 563.68 634.495 560.88C629.535 558.08 625.615 554.12 622.735 549C619.935 543.8 618.535 537.8 618.535 531C618.535 524.28 619.975 518.36 622.855 513.24C625.815 508.04 629.815 504.08 634.855 501.36C639.895 498.56 645.535 497.16 651.775 497.16C658.015 497.16 663.655 498.56 668.695 501.36C673.735 504.08 677.695 508 680.575 513.12C683.535 518.24 685.015 524.2 685.015 531C685.015 537.8 683.495 543.8 680.455 549C677.495 554.12 673.455 558.08 668.335 560.88C663.215 563.68 657.535 565.08 651.295 565.08ZM651.295 555.48C655.215 555.48 658.895 554.56 662.335 552.72C665.775 550.88 668.535 548.12 670.615 544.44C672.775 540.76 673.855 536.28 673.855 531C673.855 525.72 672.815 521.24 670.735 517.56C668.655 513.88 665.935 511.16 662.575 509.4C659.215 507.56 655.575 506.64 651.655 506.64C647.655 506.64 643.975 507.56 640.615 509.4C637.335 511.16 634.695 513.88 632.695 517.56C630.695 521.24 629.695 525.72 629.695 531C629.695 536.36 630.655 540.88 632.575 544.56C634.575 548.24 637.215 551 640.495 552.84C643.775 554.6 647.375 555.48 651.295 555.48Z"/>
<path d="M726.133 507.24H712.333V564H701.413V507.24H692.893V498.24H701.413V493.56C701.413 486.2 703.293 480.84 707.053 477.48C710.893 474.04 717.013 472.32 725.413 472.32V481.44C720.613 481.44 717.213 482.4 715.213 484.32C713.293 486.16 712.333 489.24 712.333 493.56V498.24H726.133V507.24Z"/>
<path d="M476.269 690.48C478.509 686.56 481.789 683.36 486.109 680.88C490.429 678.4 495.349 677.16 500.869 677.16C506.789 677.16 512.109 678.56 516.829 681.36C521.549 684.16 525.269 688.12 527.989 693.24C530.709 698.28 532.069 704.16 532.069 710.88C532.069 717.52 530.709 723.44 527.989 728.64C525.269 733.84 521.509 737.88 516.709 740.76C511.989 743.64 506.709 745.08 500.869 745.08C495.189 745.08 490.189 743.84 485.869 741.36C481.629 738.88 478.429 735.72 476.269 731.88V744H465.349V655.2H476.269V690.48ZM520.909 710.88C520.909 705.92 519.909 701.6 517.909 697.92C515.909 694.24 513.189 691.44 509.749 689.52C506.389 687.6 502.669 686.64 498.589 686.64C494.589 686.64 490.869 687.64 487.429 689.64C484.069 691.56 481.349 694.4 479.269 698.16C477.269 701.84 476.269 706.12 476.269 711C476.269 715.96 477.269 720.32 479.269 724.08C481.349 727.76 484.069 730.6 487.429 732.6C490.869 734.52 494.589 735.48 498.589 735.48C502.669 735.48 506.389 734.52 509.749 732.6C513.189 730.6 515.909 727.76 517.909 724.08C519.909 720.32 520.909 715.92 520.909 710.88Z"/>
<path d="M606.443 708.6C606.443 710.68 606.323 712.88 606.083 715.2H553.523C553.923 721.68 556.123 726.76 560.123 730.44C564.203 734.04 569.123 735.84 574.883 735.84C579.603 735.84 583.523 734.76 586.643 732.6C589.843 730.36 592.083 727.4 593.363 723.72H605.123C603.363 730.04 599.843 735.2 594.563 739.2C589.283 743.12 582.723 745.08 574.883 745.08C568.643 745.08 563.043 743.68 558.083 740.88C553.203 738.08 549.363 734.12 546.563 729C543.763 723.8 542.363 717.8 542.363 711C542.363 704.2 543.723 698.24 546.443 693.12C549.163 688 552.963 684.08 557.843 681.36C562.803 678.56 568.483 677.16 574.883 677.16C581.123 677.16 586.643 678.52 591.443 681.24C596.243 683.96 599.923 687.72 602.483 692.52C605.123 697.24 606.443 702.6 606.443 708.6ZM595.163 706.32C595.163 702.16 594.243 698.6 592.403 695.64C590.563 692.6 588.043 690.32 584.843 688.8C581.723 687.2 578.243 686.4 574.403 686.4C568.883 686.4 564.163 688.16 560.243 691.68C556.403 695.2 554.203 700.08 553.643 706.32H595.163Z"/>
<path d="M631.777 655.2V744H620.857V655.2H631.777Z"/>
<path d="M656.028 667.56C653.948 667.56 652.188 666.84 650.748 665.4C649.308 663.96 648.588 662.2 648.588 660.12C648.588 658.04 649.308 656.28 650.748 654.84C652.188 653.4 653.948 652.68 656.028 652.68C658.028 652.68 659.708 653.4 661.068 654.84C662.508 656.28 663.228 658.04 663.228 660.12C663.228 662.2 662.508 663.96 661.068 665.4C659.708 666.84 658.028 667.56 656.028 667.56ZM661.308 678.24V744H650.388V678.24H661.308Z"/>
<path d="M703.2 745.08C698.16 745.08 693.64 744.24 689.64 742.56C685.64 740.8 682.48 738.4 680.16 735.36C677.84 732.24 676.56 728.68 676.32 724.68H687.6C687.92 727.96 689.44 730.64 692.16 732.72C694.96 734.8 698.6 735.84 703.08 735.84C707.24 735.84 710.52 734.92 712.92 733.08C715.32 731.24 716.52 728.92 716.52 726.12C716.52 723.24 715.24 721.12 712.68 719.76C710.12 718.32 706.16 716.92 700.8 715.56C695.92 714.28 691.92 713 688.8 711.72C685.76 710.36 683.12 708.4 680.88 705.84C678.72 703.2 677.64 699.76 677.64 695.52C677.64 692.16 678.64 689.08 680.64 686.28C682.64 683.48 685.48 681.28 689.16 679.68C692.84 678 697.04 677.16 701.76 677.16C709.04 677.16 714.92 679 719.4 682.68C723.88 686.36 726.28 691.4 726.6 697.8H715.68C715.44 694.36 714.04 691.6 711.48 689.52C709 687.44 705.64 686.4 701.4 686.4C697.48 686.4 694.36 687.24 692.04 688.92C689.72 690.6 688.56 692.8 688.56 695.52C688.56 697.68 689.24 699.48 690.6 700.92C692.04 702.28 693.8 703.4 695.88 704.28C698.04 705.08 701 706 704.76 707.04C709.48 708.32 713.32 709.6 716.28 710.88C719.24 712.08 721.76 713.92 723.84 716.4C726 718.88 727.12 722.12 727.2 726.12C727.2 729.72 726.2 732.96 724.2 735.84C722.2 738.72 719.36 741 715.68 742.68C712.08 744.28 707.92 745.08 703.2 745.08Z"/>
<path d="M771.295 745.08C765.135 745.08 759.535 743.68 754.495 740.88C749.535 738.08 745.615 734.12 742.735 729C739.935 723.8 738.535 717.8 738.535 711C738.535 704.28 739.975 698.36 742.855 693.24C745.815 688.04 749.815 684.08 754.855 681.36C759.895 678.56 765.535 677.16 771.775 677.16C778.015 677.16 783.655 678.56 788.695 681.36C793.735 684.08 797.695 688 800.575 693.12C803.535 698.24 805.015 704.2 805.015 711C805.015 717.8 803.495 723.8 800.455 729C797.495 734.12 793.455 738.08 788.335 740.88C783.215 743.68 777.535 745.08 771.295 745.08ZM771.295 735.48C775.215 735.48 778.895 734.56 782.335 732.72C785.775 730.88 788.535 728.12 790.615 724.44C792.775 720.76 793.855 716.28 793.855 711C793.855 705.72 792.815 701.24 790.735 697.56C788.655 693.88 785.935 691.16 782.575 689.4C779.215 687.56 775.575 686.64 771.655 686.64C767.655 686.64 763.975 687.56 760.615 689.4C757.335 691.16 754.695 693.88 752.695 697.56C750.695 701.24 749.695 705.72 749.695 711C749.695 716.36 750.655 720.88 752.575 724.56C754.575 728.24 757.215 731 760.495 732.84C763.775 734.6 767.375 735.48 771.295 735.48Z"/>
<path d="M851.413 677.04C859.413 677.04 865.893 679.48 870.853 684.36C875.813 689.16 878.293 696.12 878.293 705.24V744H867.493V706.8C867.493 700.24 865.853 695.24 862.573 691.8C859.293 688.28 854.813 686.52 849.133 686.52C843.373 686.52 838.773 688.32 835.333 691.92C831.973 695.52 830.293 700.76 830.293 707.64V744H819.373V678.24H830.293V687.6C832.453 684.24 835.373 681.64 839.053 679.8C842.813 677.96 846.933 677.04 851.413 677.04Z"/>
</mask>
<path d="M404.877 300.96V384H393.957V322.08L366.357 384H358.677L330.957 321.96V384H320.037V300.96H331.797L362.517 369.6L393.237 300.96H404.877Z" stroke="white" stroke-width="10" mask="url(#path-2-outside-1)"/>
<path d="M481.716 318.24V384H470.796V374.28C468.716 377.64 465.796 380.28 462.036 382.2C458.356 384.04 454.276 384.96 449.796 384.96C444.676 384.96 440.076 383.92 435.996 381.84C431.916 379.68 428.676 376.48 426.276 372.24C423.956 368 422.796 362.84 422.796 356.76V318.24H433.596V355.32C433.596 361.8 435.236 366.8 438.516 370.32C441.796 373.76 446.276 375.48 451.956 375.48C457.796 375.48 462.396 373.68 465.756 370.08C469.116 366.48 470.796 361.24 470.796 354.36V318.24H481.716Z" stroke="white" stroke-width="10" mask="url(#path-2-outside-1)"/>
<path d="M532.194 317.04C540.194 317.04 546.674 319.48 551.634 324.36C556.594 329.16 559.074 336.12 559.074 345.24V384H548.274V346.8C548.274 340.24 546.634 335.24 543.354 331.8C540.074 328.28 535.594 326.52 529.914 326.52C524.154 326.52 519.554 328.32 516.114 331.92C512.754 335.52 511.074 340.76 511.074 347.64V384H500.154V318.24H511.074V327.6C513.234 324.24 516.154 321.64 519.834 319.8C523.594 317.96 527.714 317.04 532.194 317.04Z" stroke="white" stroke-width="10" mask="url(#path-2-outside-1)"/>
<path d="M582.552 307.56C580.472 307.56 578.712 306.84 577.272 305.4C575.832 303.96 575.112 302.2 575.112 300.12C575.112 298.04 575.832 296.28 577.272 294.84C578.712 293.4 580.472 292.68 582.552 292.68C584.552 292.68 586.232 293.4 587.592 294.84C589.032 296.28 589.752 298.04 589.752 300.12C589.752 302.2 589.032 303.96 587.592 305.4C586.232 306.84 584.552 307.56 582.552 307.56ZM587.832 318.24V384H576.912V318.24H587.832Z" stroke="white" stroke-width="10" mask="url(#path-2-outside-1)"/>
<path d="M602.363 351C602.363 344.2 603.723 338.28 606.443 333.24C609.163 328.12 612.923 324.16 617.723 321.36C622.603 318.56 628.163 317.16 634.403 317.16C642.483 317.16 649.123 319.12 654.323 323.04C659.603 326.96 663.083 332.4 664.763 339.36H653.003C651.883 335.36 649.683 332.2 646.403 329.88C643.203 327.56 639.203 326.4 634.403 326.4C628.163 326.4 623.123 328.56 619.283 332.88C615.443 337.12 613.523 343.16 613.523 351C613.523 358.92 615.443 365.04 619.283 369.36C623.123 373.68 628.163 375.84 634.403 375.84C639.203 375.84 643.203 374.72 646.403 372.48C649.603 370.24 651.803 367.04 653.003 362.88H664.763C663.003 369.6 659.483 375 654.203 379.08C648.923 383.08 642.323 385.08 634.403 385.08C628.163 385.08 622.603 383.68 617.723 380.88C612.923 378.08 609.163 374.12 606.443 369C603.723 363.88 602.363 357.88 602.363 351Z" stroke="white" stroke-width="10" mask="url(#path-2-outside-1)"/>
<path d="M684.974 307.56C682.894 307.56 681.134 306.84 679.694 305.4C678.254 303.96 677.534 302.2 677.534 300.12C677.534 298.04 678.254 296.28 679.694 294.84C681.134 293.4 682.894 292.68 684.974 292.68C686.974 292.68 688.654 293.4 690.014 294.84C691.454 296.28 692.174 298.04 692.174 300.12C692.174 302.2 691.454 303.96 690.014 305.4C688.654 306.84 686.974 307.56 684.974 307.56ZM690.254 318.24V384H679.334V318.24H690.254Z" stroke="white" stroke-width="10" mask="url(#path-2-outside-1)"/>
<path d="M719.785 330.36C721.945 326.6 725.145 323.48 729.385 321C733.705 318.44 738.705 317.16 744.385 317.16C750.225 317.16 755.505 318.56 760.225 321.36C765.025 324.16 768.785 328.12 771.505 333.24C774.225 338.28 775.585 344.16 775.585 350.88C775.585 357.52 774.225 363.44 771.505 368.64C768.785 373.84 765.025 377.88 760.225 380.76C755.505 383.64 750.225 385.08 744.385 385.08C738.785 385.08 733.825 383.84 729.505 381.36C725.265 378.8 722.025 375.64 719.785 371.88V415.2H708.865V318.24H719.785V330.36ZM764.425 350.88C764.425 345.92 763.425 341.6 761.425 337.92C759.425 334.24 756.705 331.44 753.265 329.52C749.905 327.6 746.185 326.64 742.105 326.64C738.105 326.64 734.385 327.64 730.945 329.64C727.585 331.56 724.865 334.4 722.785 338.16C720.785 341.84 719.785 346.12 719.785 351C719.785 355.96 720.785 360.32 722.785 364.08C724.865 367.76 727.585 370.6 730.945 372.6C734.385 374.52 738.105 375.48 742.105 375.48C746.185 375.48 749.905 374.52 753.265 372.6C756.705 370.6 759.425 367.76 761.425 364.08C763.425 360.32 764.425 355.92 764.425 350.88Z" stroke="white" stroke-width="10" mask="url(#path-2-outside-1)"/>
<path d="M785.879 350.88C785.879 344.16 787.239 338.28 789.959 333.24C792.679 328.12 796.399 324.16 801.119 321.36C805.919 318.56 811.239 317.16 817.079 317.16C822.839 317.16 827.839 318.4 832.079 320.88C836.319 323.36 839.479 326.48 841.559 330.24V318.24H852.599V384H841.559V371.76C839.399 375.6 836.159 378.8 831.839 381.36C827.599 383.84 822.639 385.08 816.959 385.08C811.119 385.08 805.839 383.64 801.119 380.76C796.399 377.88 792.679 373.84 789.959 368.64C787.239 363.44 785.879 357.52 785.879 350.88ZM841.559 351C841.559 346.04 840.559 341.72 838.559 338.04C836.559 334.36 833.839 331.56 830.399 329.64C827.039 327.64 823.319 326.64 819.239 326.64C815.159 326.64 811.439 327.6 808.079 329.52C804.719 331.44 802.039 334.24 800.039 337.92C798.039 341.6 797.039 345.92 797.039 350.88C797.039 355.92 798.039 360.32 800.039 364.08C802.039 367.76 804.719 370.6 808.079 372.6C811.439 374.52 815.159 375.48 819.239 375.48C823.319 375.48 827.039 374.52 830.399 372.6C833.839 370.6 836.559 367.76 838.559 364.08C840.559 360.32 841.559 355.96 841.559 351Z" stroke="white" stroke-width="10" mask="url(#path-2-outside-1)"/>
<path d="M881.972 295.2V384H871.052V295.2H881.972Z" stroke="white" stroke-width="10" mask="url(#path-2-outside-1)"/>
<path d="M906.224 307.56C904.144 307.56 902.384 306.84 900.944 305.4C899.504 303.96 898.784 302.2 898.784 300.12C898.784 298.04 899.504 296.28 900.944 294.84C902.384 293.4 904.144 292.68 906.224 292.68C908.224 292.68 909.904 293.4 911.264 294.84C912.704 296.28 913.424 298.04 913.424 300.12C913.424 302.2 912.704 303.96 911.264 305.4C909.904 306.84 908.224 307.56 906.224 307.56ZM911.504 318.24V384H900.584V318.24H911.504Z" stroke="white" stroke-width="10" mask="url(#path-2-outside-1)"/>
<path d="M943.435 327.24V366C943.435 369.2 944.115 371.48 945.475 372.84C946.835 374.12 949.195 374.76 952.555 374.76H960.595V384H950.755C944.675 384 940.115 382.6 937.075 379.8C934.035 377 932.515 372.4 932.515 366V327.24H923.995V318.24H932.515V301.68H943.435V318.24H960.595V327.24H943.435Z" stroke="white" stroke-width="10" mask="url(#path-2-outside-1)"/>
<path d="M1030.47 318.24L990.866 414.96H979.586L992.546 383.28L966.026 318.24H978.146L998.786 371.52L1019.19 318.24H1030.47Z" stroke="white" stroke-width="10" mask="url(#path-2-outside-1)"/>
<path d="M651.295 565.08C645.135 565.08 639.535 563.68 634.495 560.88C629.535 558.08 625.615 554.12 622.735 549C619.935 543.8 618.535 537.8 618.535 531C618.535 524.28 619.975 518.36 622.855 513.24C625.815 508.04 629.815 504.08 634.855 501.36C639.895 498.56 645.535 497.16 651.775 497.16C658.015 497.16 663.655 498.56 668.695 501.36C673.735 504.08 677.695 508 680.575 513.12C683.535 518.24 685.015 524.2 685.015 531C685.015 537.8 683.495 543.8 680.455 549C677.495 554.12 673.455 558.08 668.335 560.88C663.215 563.68 657.535 565.08 651.295 565.08ZM651.295 555.48C655.215 555.48 658.895 554.56 662.335 552.72C665.775 550.88 668.535 548.12 670.615 544.44C672.775 540.76 673.855 536.28 673.855 531C673.855 525.72 672.815 521.24 670.735 517.56C668.655 513.88 665.935 511.16 662.575 509.4C659.215 507.56 655.575 506.64 651.655 506.64C647.655 506.64 643.975 507.56 640.615 509.4C637.335 511.16 634.695 513.88 632.695 517.56C630.695 521.24 629.695 525.72 629.695 531C629.695 536.36 630.655 540.88 632.575 544.56C634.575 548.24 637.215 551 640.495 552.84C643.775 554.6 647.375 555.48 651.295 555.48Z" stroke="white" stroke-width="10" mask="url(#path-2-outside-1)"/>
<path d="M726.133 507.24H712.333V564H701.413V507.24H692.893V498.24H701.413V493.56C701.413 486.2 703.293 480.84 707.053 477.48C710.893 474.04 717.013 472.32 725.413 472.32V481.44C720.613 481.44 717.213 482.4 715.213 484.32C713.293 486.16 712.333 489.24 712.333 493.56V498.24H726.133V507.24Z" stroke="white" stroke-width="10" mask="url(#path-2-outside-1)"/>
<path d="M476.269 690.48C478.509 686.56 481.789 683.36 486.109 680.88C490.429 678.4 495.349 677.16 500.869 677.16C506.789 677.16 512.109 678.56 516.829 681.36C521.549 684.16 525.269 688.12 527.989 693.24C530.709 698.28 532.069 704.16 532.069 710.88C532.069 717.52 530.709 723.44 527.989 728.64C525.269 733.84 521.509 737.88 516.709 740.76C511.989 743.64 506.709 745.08 500.869 745.08C495.189 745.08 490.189 743.84 485.869 741.36C481.629 738.88 478.429 735.72 476.269 731.88V744H465.349V655.2H476.269V690.48ZM520.909 710.88C520.909 705.92 519.909 701.6 517.909 697.92C515.909 694.24 513.189 691.44 509.749 689.52C506.389 687.6 502.669 686.64 498.589 686.64C494.589 686.64 490.869 687.64 487.429 689.64C484.069 691.56 481.349 694.4 479.269 698.16C477.269 701.84 476.269 706.12 476.269 711C476.269 715.96 477.269 720.32 479.269 724.08C481.349 727.76 484.069 730.6 487.429 732.6C490.869 734.52 494.589 735.48 498.589 735.48C502.669 735.48 506.389 734.52 509.749 732.6C513.189 730.6 515.909 727.76 517.909 724.08C519.909 720.32 520.909 715.92 520.909 710.88Z" stroke="white" stroke-width="10" mask="url(#path-2-outside-1)"/>
<path d="M606.443 708.6C606.443 710.68 606.323 712.88 606.083 715.2H553.523C553.923 721.68 556.123 726.76 560.123 730.44C564.203 734.04 569.123 735.84 574.883 735.84C579.603 735.84 583.523 734.76 586.643 732.6C589.843 730.36 592.083 727.4 593.363 723.72H605.123C603.363 730.04 599.843 735.2 594.563 739.2C589.283 743.12 582.723 745.08 574.883 745.08C568.643 745.08 563.043 743.68 558.083 740.88C553.203 738.08 549.363 734.12 546.563 729C543.763 723.8 542.363 717.8 542.363 711C542.363 704.2 543.723 698.24 546.443 693.12C549.163 688 552.963 684.08 557.843 681.36C562.803 678.56 568.483 677.16 574.883 677.16C581.123 677.16 586.643 678.52 591.443 681.24C596.243 683.96 599.923 687.72 602.483 692.52C605.123 697.24 606.443 702.6 606.443 708.6ZM595.163 706.32C595.163 702.16 594.243 698.6 592.403 695.64C590.563 692.6 588.043 690.32 584.843 688.8C581.723 687.2 578.243 686.4 574.403 686.4C568.883 686.4 564.163 688.16 560.243 691.68C556.403 695.2 554.203 700.08 553.643 706.32H595.163Z" stroke="white" stroke-width="10" mask="url(#path-2-outside-1)"/>
<path d="M631.777 655.2V744H620.857V655.2H631.777Z" stroke="white" stroke-width="10" mask="url(#path-2-outside-1)"/>
<path d="M656.028 667.56C653.948 667.56 652.188 666.84 650.748 665.4C649.308 663.96 648.588 662.2 648.588 660.12C648.588 658.04 649.308 656.28 650.748 654.84C652.188 653.4 653.948 652.68 656.028 652.68C658.028 652.68 659.708 653.4 661.068 654.84C662.508 656.28 663.228 658.04 663.228 660.12C663.228 662.2 662.508 663.96 661.068 665.4C659.708 666.84 658.028 667.56 656.028 667.56ZM661.308 678.24V744H650.388V678.24H661.308Z" stroke="white" stroke-width="10" mask="url(#path-2-outside-1)"/>
<path d="M703.2 745.08C698.16 745.08 693.64 744.24 689.64 742.56C685.64 740.8 682.48 738.4 680.16 735.36C677.84 732.24 676.56 728.68 676.32 724.68H687.6C687.92 727.96 689.44 730.64 692.16 732.72C694.96 734.8 698.6 735.84 703.08 735.84C707.24 735.84 710.52 734.92 712.92 733.08C715.32 731.24 716.52 728.92 716.52 726.12C716.52 723.24 715.24 721.12 712.68 719.76C710.12 718.32 706.16 716.92 700.8 715.56C695.92 714.28 691.92 713 688.8 711.72C685.76 710.36 683.12 708.4 680.88 705.84C678.72 703.2 677.64 699.76 677.64 695.52C677.64 692.16 678.64 689.08 680.64 686.28C682.64 683.48 685.48 681.28 689.16 679.68C692.84 678 697.04 677.16 701.76 677.16C709.04 677.16 714.92 679 719.4 682.68C723.88 686.36 726.28 691.4 726.6 697.8H715.68C715.44 694.36 714.04 691.6 711.48 689.52C709 687.44 705.64 686.4 701.4 686.4C697.48 686.4 694.36 687.24 692.04 688.92C689.72 690.6 688.56 692.8 688.56 695.52C688.56 697.68 689.24 699.48 690.6 700.92C692.04 702.28 693.8 703.4 695.88 704.28C698.04 705.08 701 706 704.76 707.04C709.48 708.32 713.32 709.6 716.28 710.88C719.24 712.08 721.76 713.92 723.84 716.4C726 718.88 727.12 722.12 727.2 726.12C727.2 729.72 726.2 732.96 724.2 735.84C722.2 738.72 719.36 741 715.68 742.68C712.08 744.28 707.92 745.08 703.2 745.08Z" stroke="white" stroke-width="10" mask="url(#path-2-outside-1)"/>
<path d="M771.295 745.08C765.135 745.08 759.535 743.68 754.495 740.88C749.535 738.08 745.615 734.12 742.735 729C739.935 723.8 738.535 717.8 738.535 711C738.535 704.28 739.975 698.36 742.855 693.24C745.815 688.04 749.815 684.08 754.855 681.36C759.895 678.56 765.535 677.16 771.775 677.16C778.015 677.16 783.655 678.56 788.695 681.36C793.735 684.08 797.695 688 800.575 693.12C803.535 698.24 805.015 704.2 805.015 711C805.015 717.8 803.495 723.8 800.455 729C797.495 734.12 793.455 738.08 788.335 740.88C783.215 743.68 777.535 745.08 771.295 745.08ZM771.295 735.48C775.215 735.48 778.895 734.56 782.335 732.72C785.775 730.88 788.535 728.12 790.615 724.44C792.775 720.76 793.855 716.28 793.855 711C793.855 705.72 792.815 701.24 790.735 697.56C788.655 693.88 785.935 691.16 782.575 689.4C779.215 687.56 775.575 686.64 771.655 686.64C767.655 686.64 763.975 687.56 760.615 689.4C757.335 691.16 754.695 693.88 752.695 697.56C750.695 701.24 749.695 705.72 749.695 711C749.695 716.36 750.655 720.88 752.575 724.56C754.575 728.24 757.215 731 760.495 732.84C763.775 734.6 767.375 735.48 771.295 735.48Z" stroke="white" stroke-width="10" mask="url(#path-2-outside-1)"/>
<path d="M851.413 677.04C859.413 677.04 865.893 679.48 870.853 684.36C875.813 689.16 878.293 696.12 878.293 705.24V744H867.493V706.8C867.493 700.24 865.853 695.24 862.573 691.8C859.293 688.28 854.813 686.52 849.133 686.52C843.373 686.52 838.773 688.32 835.333 691.92C831.973 695.52 830.293 700.76 830.293 707.64V744H819.373V678.24H830.293V687.6C832.453 684.24 835.373 681.64 839.053 679.8C842.813 677.96 846.933 677.04 851.413 677.04Z" stroke="white" stroke-width="10" mask="url(#path-2-outside-1)"/>
</svg>
