<svg width="124" height="100" viewBox="0 0 124 100" fill="none" xmlns="http://www.w3.org/2000/svg">
<g id="traingles">
<g id="lightgroup">
<path id="light1" d="M47.8678 45.255C49.2359 46.0172 49.2369 47.9847 47.8697 48.7483L11.2913 69.1779C9.95856 69.9222 8.31686 68.9593 8.31605 67.4328L8.29417 26.6129C8.29335 25.0864 9.93401 24.1218 11.2675 24.8647L47.8678 45.255Z" fill="#17EBEB" fill-opacity="0.7"/>
</g>
<g id="darkgroup">
<path id="dark1" d="M65.5756 45.0707C66.9436 45.8329 66.9446 47.8004 65.5774 48.564L28.999 68.9936C27.6663 69.7379 26.0246 68.775 26.0238 67.2485L26.0019 26.4286C26.0011 24.9021 27.6417 23.9375 28.9753 24.6804L65.5756 45.0707Z" fill="#1958FA" fill-opacity="0.7"/>
<path id="dark2" d="M47.5755 45.0707C48.9436 45.8329 48.9446 47.8004 47.5774 48.564L10.999 68.9936C9.66626 69.7379 8.02457 68.775 8.02375 67.2485L8.00187 26.4286C8.00105 24.9021 9.64171 23.9375 10.9752 24.6804L47.5755 45.0707Z" fill="#1958FA" fill-opacity="0.7"/>
</g>
</g>
</svg>
