<svg xmlns="http://www.w3.org/2000/svg" version="1.1" xmlns:xlink="http://www.w3.org/1999/xlink" xmlns:svgjs="http://svgjs.com/svgjs" width="1440" height="560" preserveAspectRatio="none" viewBox="0 0 1440 560"><g mask="url(&quot;#SvgjsMask2480&quot;)" fill="none"><rect width="1440" height="560" x="0" y="0" fill="url(#SvgjsLinearGradient2481)"></rect><path d="M-19.24 262.97C82.82 263.23 181.85 332.97 382.94 332.97 584.03 332.97 574.46 260.07 785.12 262.97 995.78 265.87 1060 565.4 1187.3 584.31" stroke="rgba(255, 68, 0, 0.99)" stroke-width="2"></path><path d="M-0.6 345.95C170.3 345.11 406.41 197.38 667.32 200.35 928.23 203.32 872.49 589.67 1001.28 638.45" stroke="rgba(255, 68, 0, 0.99)" stroke-width="2"></path><path d="M-177.41 305.32C-17.72 301.4 185.94 73.07 418.85 75.72 651.76 78.37 590.51 498.52 716.98 566.41" stroke="rgba(255, 68, 0, 0.99)" stroke-width="2"></path><path d="M-132.41 119.05C-7.28 130.8 46.26 376.44 288.82 393.45 531.37 410.46 592.33 599.25 710.04 605.09" stroke="rgba(255, 68, 0, 0.99)" stroke-width="2"></path><path d="M-82.79 108.52C92.54 110.68 233.14 303.38 588.98 310.12 944.82 316.86 1079.9 574.25 1260.75 579.19" stroke="rgba(255, 68, 0, 0.99)" stroke-width="2"></path></g><defs><mask id="SvgjsMask2480"><rect width="1440" height="560" fill="#ffffff"></rect></mask><linearGradient x1="84.72%" y1="-39.29%" x2="15.28%" y2="139.29%" gradientUnits="userSpaceOnUse" id="SvgjsLinearGradient2481"><stop stop-color="rgba(0, 0, 0, 1)" offset="0.51"></stop><stop stop-color="rgba(121, 35, 4, 1)" offset="1"></stop></linearGradient></defs></svg>